<svg id="corel-file" enable-background="new 0 0 300 300" height="512" viewBox="0 0 300 300" width="512" xmlns="http://www.w3.org/2000/svg"><g><circle cx="132.828" cy="150" fill="#ffc7c7" r="86"/><g><path d="m222.828 44h-120c-4.418 0-8 3.582-8 8v196c0 4.418 3.582 8 8 8h144c4.418 0 8-3.582 8-8v-172z" fill="#fff"/><path d="m246.828 260h-144c-6.617 0-12-5.383-12-12v-196c0-6.617 5.383-12 12-12h120c1.062 0 2.078.422 2.828 1.172l32 32c.75.75 1.172 1.768 1.172 2.828v172c0 6.617-5.383 12-12 12zm-144-212c-2.207 0-4 1.795-4 4v196c0 2.205 1.793 4 4 4h144c2.207 0 4-1.795 4-4v-170.344l-29.657-29.656z" fill="#4c241d"/></g><g><path d="m222.828 76h32l-32-32z" fill="#efefd2"/><path d="m254.828 80h-32c-2.211 0-4-1.791-4-4v-32c0-1.617.973-3.076 2.469-3.695 1.5-.617 3.215-.275 4.359.867l32 32c1.145 1.145 1.488 2.863.867 4.359-.617 1.494-2.078 2.469-3.695 2.469zm-28-8h18.344l-18.344-18.344z" fill="#4c241d"/></g><g fill="#4c241d"><path d="m56.484 185.656c-1.023 0-2.047-.391-2.828-1.172l-11.312-11.312c-1.562-1.562-1.562-4.094 0-5.656s4.094-1.562 5.656 0l11.312 11.312c1.562 1.562 1.562 4.094 0 5.656-.781.782-1.805 1.172-2.828 1.172z"/><path d="m45.171 185.656c-1.023 0-2.047-.391-2.828-1.172-1.562-1.562-1.562-4.094 0-5.656l11.312-11.312c1.562-1.562 4.094-1.562 5.656 0s1.562 4.094 0 5.656l-11.311 11.312c-.782.782-1.805 1.172-2.829 1.172z"/><circle cx="78.828" cy="164" r="4"/><circle cx="66.828" cy="120" r="4"/><path d="m176.367 232h-9.539c-2.211 0-4-1.791-4-4v-28c0-2.209 1.789-4 4-4h9.539c5.77 0 10.461 4.693 10.461 10.461v15.078c0 5.768-4.692 10.461-10.461 10.461zm-5.539-8h5.539c1.355 0 2.461-1.104 2.461-2.461v-15.078c0-1.357-1.105-2.461-2.461-2.461h-5.539z"/><path d="m154.828 232h-9.539c-5.77 0-10.461-4.693-10.461-10.461v-15.078c0-5.768 4.691-10.461 10.461-10.461h9.539c2.211 0 4 1.791 4 4s-1.789 4-4 4h-9.539c-1.355 0-2.461 1.104-2.461 2.461v15.078c0 1.357 1.105 2.461 2.461 2.461h9.539c2.211 0 4 1.791 4 4s-1.789 4-4 4z"/><path d="m210.828 232c-1.023 0-2.047-.391-2.828-1.172l-9.172-9.172v6.344c0 2.209-1.789 4-4 4s-4-1.791-4-4v-28c0-2.209 1.789-4 4-4h10.574c5.199 0 9.426 4.227 9.426 9.424v5.152c0 4.262-2.844 7.871-6.734 9.033l5.562 5.562c1.562 1.562 1.562 4.094 0 5.656-.781.782-1.805 1.173-2.828 1.173zm-12-20h6.574c.785 0 1.426-.639 1.426-1.424v-5.152c0-.785-.641-1.424-1.426-1.424h-6.574z"/></g><g><path d="m202.828 107.2c0-24.301-14.327-31.2-32-31.2s-32 6.899-32 31.2 21.333 56.8 32 56.8 32-32.499 32-56.8z" fill="#a9ba5a"/><path d="m170.828 168c-14.469 0-36-36.367-36-60.801 0-23.027 12.449-35.199 36-35.199s36 12.172 36 35.199c0 24.434-21.532 60.801-36 60.801zm0-88c-19.363 0-28 8.389-28 27.199 0 24.117 21.367 52.801 28 52.801s28-28.684 28-52.801c0-18.81-8.637-27.199-28-27.199z" fill="#4c241d"/></g><g><path d="m186.828 111.2c0-24.301-7.163-35.2-16-35.2s-16 10.899-16 35.2 10.667 52.8 16 52.8 16-28.499 16-52.8z" fill="#a9ba5a"/><path d="m170.828 168c-10.312 0-20-35.436-20-56.801 0-36.373 15.309-39.199 20-39.199s20 2.826 20 39.199c0 21.365-9.688 56.801-20 56.801zm0-88c-7.289 0-12 12.246-12 31.199 0 20.756 7.898 42.834 12 48.062 4.102-5.229 12-27.307 12-48.062 0-18.953-4.711-31.199-12-31.199z" fill="#4c241d"/></g><g><path d="m162.828 164h16v16h-16z" fill="#fc8c29"/><path d="m178.828 184h-16c-2.211 0-4-1.791-4-4v-16c0-2.209 1.789-4 4-4h16c2.211 0 4 1.791 4 4v16c0 2.209-1.789 4-4 4zm-12-8h8v-8h-8z" fill="#4c241d"/></g></g></svg>